<svg width="240" height="131" fill="none" xmlns="http://www.w3.org/2000/svg"><path fill-rule="evenodd" clip-rule="evenodd" d="M5.975 94.442L0 106.605h24.786V82.281H0l5.975 12.161zM240 82.281h-24.797v24.323H240l-5.986-12.162L240 82.282z" fill="#fff"/><path d="M48.408 77.048c-2.156.707-3.829 1.88-5.02 3.52-1.163 1.613-1.744 3.62-1.744 6.025 0 1.074.099 1.81.297 2.205.199.396.298.637.298.721-3.034 0-4.552-1.286-4.552-3.86 0-1.753.667-3.506 2-5.26 1.361-1.781 3.091-3.224 5.19-4.327 2.127-1.13 4.24-1.696 6.339-1.696 1.05 0 2.127.198 3.233.593l-.978 22.356 9.359-22.356h6.126L64.49 106.19h-6.126l2.723-19.046-7.998 19.046H47.26l.851-19.13-7.105 19.13h-3.403l10.806-29.142zm25.913 29.397c-2.099 0-3.73-.537-4.892-1.612-1.163-1.103-1.744-2.814-1.744-5.133 0-1.951.382-4.1 1.148-6.448.766-2.347 2.014-4.369 3.744-6.066 1.73-1.725 3.928-2.587 6.594-2.587 3.12 0 4.68 1.357 4.68 4.072 0 1.584-.454 3.04-1.361 4.37-.908 1.329-2.114 2.403-3.617 3.223a11.895 11.895 0 01-4.807 1.358 31.87 31.87 0 00-.085 1.696c0 1.386.241 2.334.723 2.843.482.48 1.262.721 2.34.721 1.532 0 2.836-.354 3.914-1.061 1.106-.707 2.311-1.781 3.616-3.224h1.447c-3.149 5.232-7.048 7.848-11.7 7.848zm.085-10.86c1.05-.056 2.042-.424 2.978-1.102a7.48 7.48 0 002.298-2.588 6.59 6.59 0 00.893-3.309c0-1.16-.355-1.739-1.064-1.739-1.02 0-2.027.89-3.02 2.672-.964 1.782-1.66 3.804-2.085 6.066z" fill="#fff"/><path d="M87.458 84.98h6.126l-.553 2.63c.964-.848 1.83-1.498 2.595-1.95a5.072 5.072 0 012.553-.68c.907 0 1.616.312 2.127.934.539.622.808 1.371.808 2.248 0 .82-.269 1.541-.808 2.163-.539.623-1.29.934-2.255.934-.624 0-1.05-.142-1.276-.424-.199-.312-.355-.75-.468-1.316-.085-.367-.17-.636-.255-.806-.085-.17-.241-.254-.468-.254-.596 0-1.106.127-1.532.382-.397.226-.922.636-1.574 1.23l-3.403 16.119h-6.127l4.51-21.21zm19.186 21.465c-2.099 0-3.73-.537-4.893-1.612-1.162-1.103-1.744-2.814-1.744-5.133 0-1.951.383-4.1 1.149-6.448.794-2.347 2.042-4.369 3.744-6.066 1.73-1.725 3.914-2.587 6.551-2.587 1.702 0 2.907.367 3.616 1.103.738.735 1.106 1.668 1.106 2.8 0 .99-.212 1.753-.638 2.29-.425.537-.964.806-1.616.806-.482 0-.979-.17-1.489-.509.34-.933.51-1.767.51-2.503 0-.537-.099-.961-.298-1.272-.198-.311-.496-.467-.893-.467-.851 0-1.702.693-2.553 2.079-.85 1.385-1.545 3.068-2.084 5.047-.539 1.98-.808 3.762-.808 5.345 0 1.386.241 2.334.723 2.843.482.48 1.262.721 2.34.721 1.531 0 2.836-.354 3.914-1.061 1.106-.707 2.311-1.781 3.616-3.224h1.446c-3.148 5.232-7.048 7.848-11.699 7.848z" fill="#fff"/><path d="M121.993 106.445c-1.617 0-2.964-.552-4.042-1.654-1.077-1.103-1.616-2.828-1.616-5.176 0-2.092.411-4.284 1.233-6.575.851-2.319 2.099-4.27 3.744-5.854 1.674-1.612 3.659-2.418 5.956-2.418 1.163 0 2.028.198 2.595.594.568.396.851.92.851 1.57v.297l.468-2.248h6.126l-3.063 14.422c-.113.424-.17.877-.17 1.358 0 1.216.581 1.824 1.744 1.824.794 0 1.475-.368 2.042-1.103.596-.735 1.064-1.697 1.404-2.885h1.787c-1.049 3.055-2.354 5.133-3.914 6.236-1.531 1.075-3.077 1.612-4.637 1.612-1.191 0-2.156-.325-2.893-.976-.709-.678-1.134-1.654-1.276-2.927-.823 1.16-1.745 2.107-2.766 2.842-.992.707-2.183 1.061-3.573 1.061zm2.765-4.115c.709 0 1.404-.325 2.085-.975.709-.679 1.191-1.598 1.446-2.758l2.042-9.587c0-.367-.142-.72-.425-1.06-.284-.368-.723-.552-1.319-.552-1.134 0-2.156.665-3.063 1.994-.908 1.301-1.617 2.885-2.127 4.751-.511 1.838-.766 3.465-.766 4.879 0 1.413.199 2.318.596 2.714.425.396.936.594 1.531.594z" fill="#fff"/><path d="M144.386 106.445c-1.617 0-2.964-.552-4.042-1.654-1.077-1.103-1.616-2.828-1.616-5.176 0-2.092.411-4.284 1.234-6.575.85-2.319 2.098-4.27 3.743-5.854 1.674-1.612 3.659-2.418 5.956-2.418 1.163 0 2.028.198 2.595.594.568.396.851.92.851 1.57v.17l2.085-9.757 6.296-.848-4.892 22.906c-.114.424-.17.877-.17 1.358 0 .565.127.975.383 1.23.283.226.737.339 1.361.339.794 0 1.475-.339 2.042-1.018.596-.679 1.064-1.584 1.404-2.715h1.787c-1.73 5.062-4.581 7.593-8.551 7.593-1.163 0-2.113-.311-2.851-.933-.709-.622-1.148-1.527-1.319-2.715a10.094 10.094 0 01-2.68 2.8c-1.021.735-2.226 1.103-3.616 1.103zm2.765-4.115c.681 0 1.362-.311 2.042-.933.709-.622 1.192-1.485 1.447-2.588v-.212l2.084-9.714c-.255-.99-.836-1.484-1.744-1.484-1.134 0-2.155.664-3.063 1.993-.907 1.301-1.617 2.885-2.127 4.751-.511 1.838-.766 3.465-.766 4.879 0 1.413.199 2.318.596 2.714.425.396.936.594 1.531.594z" fill="#fff"/><path d="M168.737 82.69c-.936 0-1.73-.325-2.382-.976-.653-.65-.979-1.442-.979-2.375s.326-1.725.979-2.376c.652-.678 1.446-1.018 2.382-1.018.936 0 1.73.34 2.383 1.018.68.65 1.021 1.443 1.021 2.376 0 .933-.341 1.725-1.021 2.375-.653.65-1.447.976-2.383.976zm-2.893 23.755c-1.361 0-2.467-.424-3.318-1.273-.823-.848-1.234-2.121-1.234-3.817 0-.707.114-1.627.34-2.758l2.893-13.616h6.127l-3.063 14.422a5.213 5.213 0 00-.171 1.358c0 .565.128.975.383 1.23.284.226.738.339 1.362.339.822 0 1.588-.339 2.297-1.018.709-.707 1.219-1.612 1.531-2.715h1.787c-1.049 3.055-2.396 5.133-4.041 6.236-1.645 1.075-3.276 1.612-4.893 1.612z" fill="#fff"/><path d="M177.186 106.445c-1.361 0-2.467-.424-3.318-1.273-.823-.848-1.234-2.121-1.234-3.817 0-.707.114-1.627.34-2.758l2.553-11.92h-1.404l.34-1.696h1.404l1.277-5.854 6.296-.849-1.446 6.703h2.552l-.34 1.696h-2.553l-2.723 12.726c-.113.424-.17.877-.17 1.358 0 .565.128.975.383 1.23.284.226.738.339 1.362.339.822 0 1.588-.339 2.297-1.018.709-.707 1.219-1.612 1.531-2.715h1.787c-1.049 3.055-2.396 5.133-4.041 6.236-1.645 1.075-3.276 1.612-4.893 1.612z" fill="#fff"/><path d="M190.528 106.36c-2.099 0-3.758-.537-4.978-1.612-1.219-1.074-1.829-2.771-1.829-5.09 0-1.951.383-4.087 1.149-6.406.765-2.347 2.013-4.369 3.743-6.066 1.73-1.725 3.943-2.587 6.637-2.587 3.347 0 5.148 1.909 5.403 5.726.624-.141 1.177-.48 1.659-1.018a14.17 14.17 0 001.361-1.909h1.362c-.766 1.528-1.447 2.73-2.042 3.606-.596.849-1.376 1.541-2.34 2.079-.17 2.658-.723 4.991-1.659 6.999-.908 2.008-2.099 3.563-3.574 4.666-1.475 1.075-3.105 1.612-4.892 1.612zm1.701-3.818c1.05 0 2.028-.848 2.936-2.545.907-1.697 1.531-3.79 1.872-6.278-.681-.254-1.021-.89-1.021-1.909 0-1.103.397-1.838 1.191-2.206-.057-.905-.213-1.527-.468-1.866-.227-.368-.61-.552-1.149-.552-.936 0-1.829.68-2.68 2.036-.851 1.33-1.546 2.956-2.084 4.879-.511 1.895-.766 3.563-.766 5.005 0 1.358.156 2.277.468 2.758.312.452.879.678 1.701.678zM70.238 125.583h-4.43v4.651h-1.912v-10.975h6.992v1.538h-5.08v3.264h4.43v1.522zm3.03.498c0-.799.159-1.518.476-2.156.318-.643.764-1.136 1.338-1.477.575-.347 1.235-.52 1.98-.52 1.105 0 1.999.354 2.684 1.062.69.709 1.064 1.649 1.12 2.819l.007.43c0 .804-.157 1.523-.469 2.156a3.402 3.402 0 01-1.33 1.47c-.575.346-1.24.52-1.996.52-1.154 0-2.079-.382-2.774-1.146-.69-.769-1.036-1.791-1.036-3.068v-.09zm1.837.158c0 .839.174 1.497.521 1.975.348.472.832.708 1.452.708s1.101-.241 1.444-.723c.347-.483.521-1.189.521-2.118 0-.824-.179-1.478-.536-1.96-.353-.482-.834-.724-1.444-.724-.6 0-1.076.239-1.429.717-.353.472-.529 1.18-.529 2.125zm8.525-.158c0-.799.159-1.518.477-2.156.317-.643.763-1.136 1.338-1.477.574-.347 1.234-.52 1.98-.52 1.104 0 1.998.354 2.684 1.062.69.709 1.063 1.649 1.118 2.819l.008.43c0 .804-.156 1.523-.469 2.156a3.402 3.402 0 01-1.33 1.47c-.575.346-1.24.52-1.996.52-1.154 0-2.079-.382-2.774-1.146-.69-.769-1.036-1.791-1.036-3.068v-.09zm1.837.158c0 .839.174 1.497.522 1.975.347.472.831.708 1.451.708.62 0 1.101-.241 1.444-.723.348-.483.522-1.189.522-2.118 0-.824-.18-1.478-.537-1.96-.353-.482-.834-.724-1.444-.724-.6 0-1.076.239-1.429.717-.352.472-.529 1.18-.529 2.125zm8.526-.143c0-1.256.292-2.264.876-3.023.585-.763 1.369-1.145 2.351-1.145.867 0 1.568.301 2.102.904v-4.176h1.837v11.578h-1.663l-.091-.844c-.55.663-1.283.995-2.2.995-.957 0-1.733-.385-2.328-1.154-.59-.768-.884-1.814-.884-3.135zm1.836.158c0 .829.16 1.477.477 1.945.322.462.778.693 1.368.693.75 0 1.3-.334 1.648-1.002v-3.483c-.338-.653-.882-.979-1.633-.979-.595 0-1.053.236-1.376.708-.322.467-.484 1.173-.484 2.118zm13.906 1.018c0-.508.139-.973.416-1.395.277-.427.824-.932 1.641-1.515-.429-.537-.729-.995-.9-1.372a2.7 2.7 0 01-.249-1.092c0-.86.262-1.538.786-2.036.524-.502 1.229-.753 2.116-.753.802 0 1.457.236 1.966.708a2.26 2.26 0 01.771 1.741c0 .458-.116.88-.348 1.267-.232.382-.612.763-1.141 1.145l-.749.543 2.124 2.502c.308-.603.461-1.273.461-2.012h1.595c0 1.352-.317 2.46-.952 3.324l1.618 1.907h-2.132l-.62-.731c-.786.588-1.723.882-2.812.882-1.089 0-1.96-.287-2.615-.86-.651-.578-.976-1.329-.976-2.253zm3.644 1.65c.62 0 1.199-.206 1.739-.618l-2.404-2.826-.235.166c-.604.457-.907.979-.907 1.567 0 .508.164.92.492 1.237.327.316.766.474 1.315.474zm-1.013-7.07c0 .422.26.953.779 1.591l.839-.573.234-.189c.312-.276.469-.63.469-1.062a.962.962 0 00-.325-.731 1.15 1.15 0 00-.824-.31c-.358 0-.643.121-.855.362-.211.241-.317.545-.317.912zm14.692 8.382v-10.975h3.251c.972 0 1.834.217 2.585.649a4.422 4.422 0 011.754 1.839c.413.794.62 1.703.62 2.728v.551c0 1.04-.21 1.954-.628 2.743a4.34 4.34 0 01-1.776 1.824c-.766.427-1.646.641-2.639.641h-3.167zm1.913-9.437v7.914h1.247c1.003 0 1.771-.311 2.305-.934.54-.628.814-1.528.824-2.699v-.61c0-1.191-.259-2.101-.778-2.729-.519-.628-1.273-.942-2.26-.942h-1.338zm13.854 2.955a4.576 4.576 0 00-.748-.061c-.842 0-1.409.322-1.701.965v5.578h-1.837v-8.156h1.754l.045.912c.444-.708 1.059-1.062 1.845-1.062.262 0 .478.035.65.105l-.008 1.719zm4.663 6.482h-1.837v-8.156h1.837v8.156zm-1.95-10.274a.98.98 0 01.264-.701c.182-.185.439-.278.771-.278.333 0 .59.093.771.278.182.186.272.42.272.701 0 .277-.09.508-.272.694-.181.181-.438.271-.771.271-.332 0-.589-.09-.771-.271a.97.97 0 01-.264-.694zm7.21 2.118l.052.943c.605-.729 1.399-1.093 2.382-1.093 1.703 0 2.57.972 2.6 2.917v5.389h-1.837v-5.284c0-.517-.113-.899-.34-1.146-.222-.251-.587-.376-1.096-.376-.741 0-1.293.334-1.656 1.002v5.804h-1.837v-8.156h1.732zm11.118 4.659l-.817.836v2.661h-1.837v-11.578h1.837v6.679l.575-.716 2.26-2.541h2.207l-3.039 3.4 3.364 4.756h-2.124l-2.426-3.497zm11.564 1.281a.827.827 0 00-.408-.746c-.267-.171-.713-.322-1.338-.453-.625-.13-1.147-.296-1.565-.497-.917-.442-1.376-1.083-1.376-1.922 0-.704.297-1.291.892-1.764.595-.472 1.351-.708 2.268-.708.977 0 1.766.241 2.366.723.605.483.907 1.108.907 1.877h-1.837c0-.352-.131-.643-.393-.874-.262-.236-.61-.355-1.043-.355-.403 0-.733.093-.99.279a.882.882 0 00-.378.747c0 .281.118.5.355.655.237.156.715.314 1.436.475.721.156 1.285.344 1.693.565.414.217.719.478.915.784.202.307.302.679.302 1.116 0 .734-.304 1.329-.914 1.786-.61.452-1.409.679-2.397.679-.67 0-1.267-.121-1.791-.362s-.932-.573-1.225-.995a2.352 2.352 0 01-.438-1.364h1.784c.025.432.189.766.491 1.002.303.231.703.347 1.202.347.484 0 .852-.091 1.104-.272a.859.859 0 00.378-.723zm-55.48-96.104a56.726 56.726 0 00-32.118 10.005 56.473 56.473 0 00-20.75 26.412h1.48A55.011 55.011 0 0188.823 42.9a55.255 55.255 0 0131.121-9.593 55.255 55.255 0 0131.121 9.593 55.01 55.01 0 0120.261 25.432h1.491a56.483 56.483 0 00-20.751-26.41 56.736 56.736 0 00-32.116-10.007z" fill="#fff"/><path d="M54.583 68.331a68.19 68.19 0 0124.729-34.813 68.516 68.516 0 0140.638-13.346 68.514 68.514 0 0140.637 13.346 68.184 68.184 0 0124.729 34.813h2.881a70.905 70.905 0 00-25.613-36.815A71.25 71.25 0 00119.95 17.36a71.254 71.254 0 00-42.635 14.156A70.911 70.911 0 0051.702 68.33h2.88z" fill="#fff"/><path fill-rule="evenodd" clip-rule="evenodd" d="M110.365 43.662c1.928 1.755 7.41 6.304 10.28 8.718 2.869 2.415 4.618 3.577 12.914 13.414l2.152 2.56h15.033a351.328 351.328 0 00-4.731-4.192c-12.824-11.178-15.167-12.944-17.364-15.224-2.198-2.28-6.626-8.462-8.968-11.58a249.032 249.032 0 00-19.484-20.445C92.126 9.301 85.937 4.886 81.835 3.288c0 0-4.787-1.487-6.502-1.062-1.715.425-3.868 1.542-1.222 4.47 2.645 2.93 34.314 35.21 36.254 36.966z" fill="#fff"/><path d="M119.21 51.184c4.338-4.27 8.329-8.092 9.932-9.556 3.509-3.209 3.531-2.46 5.964-3.354 2.432-.894 5.695.112 9.719-2.828 4.025-2.94 11.109-11.826 18.273-20.232 7.163-8.405 5.605-7.008 4.484-5.935-1.121 1.073-20.392 20.12-21.602 20.97a1.292 1.292 0 01-1.963-.89 1.28 1.28 0 01.147-.82c.706-.917 1.311-1.61 5.246-6.003 3.935-4.393 15.571-16.946 15.291-17.136-.28-.19-21.3 20.657-22.421 21.618-1.121.961-1.423.168-1.58 0-.168-.156-.908-.615 0-1.531.908-.917 22.319-21.562 22.151-21.83-.168-.269-13.138 11.077-17.645 14.933-4.506 3.856-5.224 4.471-6.154 5.13-.931.66-2.691-.536-1.827-1.72.863-1.186 20.402-20.009 21.501-21.082 1.098-1.073 2.511-2.571-6.121 4.471-8.632 7.042-17.768 13.961-20.773 17.884-3.004 3.924-1.928 7.02-2.78 9.379-.852 2.358-.067 2.347-3.363 5.779-1.524 1.576-5.526 5.589-9.977 9.87l3.498 2.883zm-16.177 17.147c.897-1.118 1.772-2.135 2.59-3.096 2.444-2.861 7.309-7.825 12.04-12.52l-3.565-2.894c-4.742 4.538-9.708 9.166-12.589 11.513-2.635 2.135-5.863 4.639-8.969 6.997h10.493z" fill="#fff"/></svg>