<svg width="20" height="20" fill="none" xmlns="http://www.w3.org/2000/svg"><path d="M14.907 4.221c.767 0 1.388-.617 1.388-1.385V1.387C16.295.62 15.675 0 14.907 0c-.767 0-1.386.618-1.386 1.387v1.45c0 .767.62 1.384 1.386 1.384z" fill="#909090"/><path d="M19.836 2.4h-2.793v.705a2.113 2.113 0 11-4.223 0V2.4H7.185v.705a2.115 2.115 0 01-2.112 2.113A2.114 2.114 0 012.96 3.105V2.4L.143 2.365V20H18.45l1.407-.004L19.836 2.4zm-1.387 16.196H1.552V7.33H18.45v11.266h-.002z" fill="#909090"/><path d="M5.05 4.221c.767 0 1.389-.617 1.389-1.385V1.387C6.439.618 5.817 0 5.05 0S3.664.618 3.664 1.387v1.45c0 .767.619 1.384 1.386 1.384zM9.408 8.84H7.19v1.96h2.22V8.84zm3.59 0h-2.22v1.96h2.22V8.84zm3.325 0h-2.219v1.96h2.22V8.84zm-6.915 3.254H7.19v1.957h2.22v-1.957zm3.59 0h-2.22v1.957h2.22v-1.957zm3.325 0h-2.219v1.957h2.22v-1.957zM9.408 15.41H7.19v1.958h2.22v-1.957zm-3.526-3.316H3.665v1.957h2.217v-1.957zm0 3.316H3.665v1.958h2.217v-1.957zm7.116 0h-2.22v1.958h2.22v-1.957zm3.325 0h-2.219v1.958h2.22v-1.957z" fill="#909090"/></svg>