<svg width="240" height="131" viewBox="0 0 240 131" fill="none" xmlns="http://www.w3.org/2000/svg">
<path fill-rule="evenodd" clip-rule="evenodd" d="M5.97506 94.4425L0 106.604H24.7858V82.2811H0L5.97506 94.4425Z" fill="white"/>
<path fill-rule="evenodd" clip-rule="evenodd" d="M240 82.2811H215.203V106.604H240L234.014 94.4425L240 82.2811Z" fill="white"/>
<path d="M48.408 77.048C46.2525 77.755 44.5791 78.9287 43.3879 80.5689C42.2251 82.1808 41.6437 84.1887 41.6437 86.5925C41.6437 87.6671 41.743 88.4024 41.9415 88.7983C42.14 89.1942 42.2393 89.4346 42.2393 89.5195C39.2046 89.5195 37.6872 88.2327 37.6872 85.6593C37.6872 83.9059 38.3537 82.1526 39.6867 80.3992C41.0481 78.6176 42.7782 77.1753 44.8769 76.0724C47.0041 74.9412 49.117 74.3756 51.2158 74.3756C52.2652 74.3756 53.343 74.5736 54.4491 74.9695L53.4706 97.3247L62.83 74.9695H68.9562L64.4892 106.19H58.363L61.0858 87.144L53.0877 106.19H47.2593L48.1102 87.0591L41.0055 106.19H37.6021L48.408 77.048Z" fill="white"/>
<path d="M74.3213 106.445C72.2225 106.445 70.5917 105.908 69.4288 104.833C68.266 103.73 67.6846 102.019 67.6846 99.7002C67.6846 97.7489 68.0675 95.5996 68.8332 93.2524C69.599 90.9052 70.8469 88.8832 72.577 87.1864C74.3071 85.4613 76.5051 84.5988 79.1711 84.5988C82.291 84.5988 83.8509 85.9562 83.8509 88.6711C83.8509 90.2547 83.3971 91.7111 82.4895 93.0403C81.5819 94.3695 80.3765 95.4441 78.8733 96.2642C77.3701 97.056 75.7677 97.5085 74.066 97.6216C74.0093 98.47 73.9809 99.0356 73.9809 99.3184C73.9809 100.704 74.222 101.652 74.7041 102.161C75.1863 102.641 75.9662 102.882 77.044 102.882C78.5755 102.882 79.8802 102.528 80.9579 101.821C82.064 101.114 83.2694 100.04 84.5741 98.5973H86.0205C82.8724 103.829 78.9726 106.445 74.3213 106.445ZM74.4063 95.5855C75.4557 95.5289 76.4484 95.1613 77.3843 94.4826C78.3486 93.8039 79.1144 92.9413 79.6817 91.895C80.2773 90.8486 80.5751 89.7457 80.5751 88.5862C80.5751 87.4268 80.2205 86.847 79.5115 86.847C78.4905 86.847 77.4836 87.7378 76.4909 89.5195C75.5266 91.3011 74.8318 93.3231 74.4063 95.5855Z" fill="white"/>
<path d="M87.458 84.9806H93.5842L93.0311 87.6106C93.9954 86.7622 94.8605 86.1117 95.6263 85.6593C96.4204 85.2068 97.2712 84.9806 98.1788 84.9806C99.0864 84.9806 99.7954 85.2916 100.306 85.9138C100.845 86.5359 101.114 87.2853 101.114 88.162C101.114 88.9821 100.845 89.7033 100.306 90.3254C99.7671 90.9476 99.0155 91.2587 98.0512 91.2587C97.4272 91.2587 97.0018 91.1173 96.7749 90.8345C96.5764 90.5234 96.4204 90.0851 96.3069 89.5195C96.2218 89.1518 96.1368 88.8832 96.0517 88.7135C95.9666 88.5438 95.8106 88.459 95.5837 88.459C94.9881 88.459 94.4776 88.5862 94.0522 88.8408C93.6551 89.067 93.1304 89.4771 92.4781 90.0709L89.0746 106.19H82.9485L87.458 84.9806Z" fill="white"/>
<path d="M106.644 106.445C104.545 106.445 102.914 105.908 101.751 104.833C100.589 103.73 100.007 102.019 100.007 99.7002C100.007 97.7489 100.39 95.5996 101.156 93.2524C101.95 90.9052 103.198 88.8832 104.9 87.1864C106.63 85.4613 108.814 84.5988 111.451 84.5988C113.153 84.5988 114.358 84.9664 115.067 85.7017C115.805 86.437 116.173 87.3702 116.173 88.5014C116.173 89.4912 115.961 90.2547 115.535 90.7921C115.11 91.3294 114.571 91.598 113.919 91.598C113.437 91.598 112.94 91.4284 112.43 91.089C112.77 90.1558 112.94 89.3215 112.94 88.5862C112.94 88.0489 112.841 87.6247 112.642 87.3136C112.444 87.0026 112.146 86.847 111.749 86.847C110.898 86.847 110.047 87.5399 109.196 88.9256C108.346 90.3113 107.651 91.9939 107.112 93.9735C106.573 95.9531 106.304 97.7347 106.304 99.3184C106.304 100.704 106.545 101.652 107.027 102.161C107.509 102.641 108.289 102.882 109.367 102.882C110.898 102.882 112.203 102.528 113.281 101.821C114.387 101.114 115.592 100.04 116.897 98.5973H118.343C115.195 103.829 111.295 106.445 106.644 106.445Z" fill="white"/>
<path d="M121.993 106.445C120.376 106.445 119.029 105.893 117.951 104.791C116.874 103.688 116.335 101.963 116.335 99.6154C116.335 97.5227 116.746 95.331 117.568 93.0403C118.419 90.7214 119.667 88.77 121.312 87.1864C122.986 85.5744 124.971 84.7685 127.268 84.7685C128.431 84.7685 129.296 84.9664 129.863 85.3623C130.431 85.7582 130.714 86.2814 130.714 86.9319V87.2288L131.182 84.9806H137.308L134.245 99.4033C134.132 99.8275 134.075 100.28 134.075 100.761C134.075 101.977 134.656 102.585 135.819 102.585C136.613 102.585 137.294 102.217 137.861 101.482C138.457 100.747 138.925 99.785 139.265 98.5973H141.052C140.003 101.652 138.698 103.73 137.138 104.833C135.607 105.908 134.061 106.445 132.501 106.445C131.31 106.445 130.345 106.12 129.608 105.469C128.899 104.791 128.474 103.815 128.332 102.542C127.509 103.702 126.587 104.649 125.566 105.384C124.574 106.091 123.383 106.445 121.993 106.445ZM124.758 102.33C125.467 102.33 126.162 102.005 126.843 101.355C127.552 100.676 128.034 99.7568 128.289 98.5973L130.331 89.0104C130.331 88.6428 130.189 88.2893 129.906 87.9499C129.622 87.5823 129.183 87.3985 128.587 87.3985C127.453 87.3985 126.431 88.063 125.524 89.3922C124.616 90.6931 123.907 92.2767 123.397 94.1432C122.886 95.9814 122.631 97.6075 122.631 99.0215C122.631 100.435 122.83 101.34 123.227 101.736C123.652 102.132 124.163 102.33 124.758 102.33Z" fill="white"/>
<path d="M144.386 106.445C142.769 106.445 141.422 105.893 140.344 104.791C139.267 103.688 138.728 101.963 138.728 99.6154C138.728 97.5227 139.139 95.331 139.962 93.0403C140.812 90.7214 142.06 88.77 143.705 87.1864C145.379 85.5744 147.364 84.7685 149.661 84.7685C150.824 84.7685 151.689 84.9664 152.256 85.3623C152.824 85.7582 153.107 86.2814 153.107 86.9319V87.1015L155.192 77.345L161.488 76.4966L156.596 99.4033C156.482 99.8275 156.426 100.28 156.426 100.761C156.426 101.326 156.553 101.736 156.809 101.991C157.092 102.217 157.546 102.33 158.17 102.33C158.964 102.33 159.645 101.991 160.212 101.312C160.808 100.633 161.276 99.7285 161.616 98.5973H163.403C161.673 103.659 158.822 106.19 154.852 106.19C153.689 106.19 152.739 105.879 152.001 105.257C151.292 104.635 150.853 103.73 150.682 102.542C149.945 103.674 149.052 104.607 148.002 105.342C146.981 106.077 145.776 106.445 144.386 106.445ZM147.151 102.33C147.832 102.33 148.513 102.019 149.193 101.397C149.902 100.775 150.385 99.9123 150.64 98.8094V98.5973L152.724 88.8832C152.469 87.8934 151.888 87.3985 150.98 87.3985C149.846 87.3985 148.825 88.063 147.917 89.3922C147.01 90.6931 146.3 92.2767 145.79 94.1432C145.279 95.9814 145.024 97.6075 145.024 99.0215C145.024 100.435 145.223 101.34 145.62 101.736C146.045 102.132 146.556 102.33 147.151 102.33Z" fill="white"/>
<path d="M168.737 82.6899C167.801 82.6899 167.007 82.3647 166.355 81.7142C165.702 81.0638 165.376 80.2719 165.376 79.3387C165.376 78.4055 165.702 77.6137 166.355 76.9632C167.007 76.2845 167.801 75.9452 168.737 75.9452C169.673 75.9452 170.467 76.2845 171.12 76.9632C171.8 77.6137 172.141 78.4055 172.141 79.3387C172.141 80.2719 171.8 81.0638 171.12 81.7142C170.467 82.3647 169.673 82.6899 168.737 82.6899ZM165.844 106.445C164.483 106.445 163.377 106.021 162.526 105.172C161.703 104.324 161.292 103.051 161.292 101.355C161.292 100.648 161.406 99.7285 161.632 98.5973L164.525 84.9806H170.652L167.589 99.4033C167.475 99.8275 167.418 100.28 167.418 100.761C167.418 101.326 167.546 101.736 167.801 101.991C168.085 102.217 168.539 102.33 169.163 102.33C169.985 102.33 170.751 101.991 171.46 101.312C172.169 100.605 172.679 99.7002 172.991 98.5973H174.778C173.729 101.652 172.382 103.73 170.737 104.833C169.092 105.908 167.461 106.445 165.844 106.445Z" fill="white"/>
<path d="M177.186 106.445C175.825 106.445 174.719 106.021 173.868 105.172C173.045 104.324 172.634 103.051 172.634 101.355C172.634 100.648 172.748 99.7285 172.974 98.5973L175.527 86.6773H174.123L174.463 84.9806H175.867L177.144 79.1266L183.44 78.2782L181.994 84.9806H184.546L184.206 86.6773H181.653L178.93 99.4033C178.817 99.8275 178.76 100.28 178.76 100.761C178.76 101.326 178.888 101.736 179.143 101.991C179.427 102.217 179.881 102.33 180.505 102.33C181.327 102.33 182.093 101.991 182.802 101.312C183.511 100.605 184.021 99.7002 184.333 98.5973H186.12C185.071 101.652 183.724 103.73 182.079 104.833C180.434 105.908 178.803 106.445 177.186 106.445Z" fill="white"/>
<path d="M190.528 106.36C188.429 106.36 186.77 105.823 185.55 104.748C184.331 103.674 183.721 101.977 183.721 99.6578C183.721 97.7065 184.104 95.5713 184.87 93.2524C185.635 90.9052 186.883 88.8832 188.613 87.1864C190.343 85.4613 192.556 84.5988 195.25 84.5988C198.597 84.5988 200.398 86.5077 200.653 90.3254C201.277 90.184 201.83 89.8447 202.312 89.3074C202.794 88.7418 203.248 88.1055 203.673 87.3985H205.035C204.269 88.9256 203.588 90.1275 202.993 91.0042C202.397 91.8526 201.617 92.5454 200.653 93.0827C200.483 95.741 199.93 98.0741 198.994 100.082C198.086 102.09 196.895 103.645 195.42 104.748C193.945 105.823 192.315 106.36 190.528 106.36ZM192.229 102.542C193.279 102.542 194.257 101.694 195.165 99.9971C196.072 98.3003 196.696 96.2076 197.037 93.719C196.356 93.4645 196.016 92.8282 196.016 91.8101C196.016 90.7072 196.413 89.9719 197.207 89.6043C197.15 88.6993 196.994 88.0772 196.739 87.7378C196.512 87.3702 196.129 87.1864 195.59 87.1864C194.654 87.1864 193.761 87.8651 192.91 89.2225C192.059 90.5517 191.364 92.1778 190.826 94.1008C190.315 95.9955 190.06 97.664 190.06 99.1063C190.06 100.464 190.216 101.383 190.528 101.864C190.84 102.316 191.407 102.542 192.229 102.542Z" fill="white"/>
<path d="M70.2383 125.583H65.8086V130.234H63.8961V119.259H70.8884V120.797H65.8086V124.061H70.2383V125.583Z" fill="white"/>
<path d="M73.2681 126.081C73.2681 125.282 73.4268 124.563 73.7443 123.925C74.0618 123.282 74.5078 122.789 75.0823 122.448C75.6568 122.101 76.317 121.928 77.0628 121.928C78.1665 121.928 79.061 122.282 79.7463 122.99C80.4368 123.699 80.8097 124.639 80.8651 125.809L80.8727 126.239C80.8727 127.043 80.7164 127.762 80.404 128.395C80.0966 129.028 79.6531 129.518 79.0736 129.865C78.4991 130.211 77.8338 130.385 77.0779 130.385C75.9239 130.385 74.9991 130.003 74.3037 129.239C73.6133 128.47 73.2681 127.448 73.2681 126.171V126.081ZM75.105 126.239C75.105 127.078 75.2788 127.736 75.6265 128.214C75.9743 128.686 76.4581 128.922 77.0779 128.922C77.6978 128.922 78.1791 128.681 78.5217 128.199C78.8695 127.716 79.0433 127.01 79.0433 126.081C79.0433 125.257 78.8644 124.603 78.5066 124.121C78.1539 123.639 77.6726 123.397 77.0628 123.397C76.4631 123.397 75.9869 123.636 75.6341 124.114C75.2813 124.586 75.105 125.294 75.105 126.239Z" fill="white"/>
<path d="M83.6303 126.081C83.6303 125.282 83.789 124.563 84.1065 123.925C84.424 123.282 84.87 122.789 85.4445 122.448C86.019 122.101 86.6792 121.928 87.425 121.928C88.5287 121.928 89.4232 122.282 90.1086 122.99C90.799 123.699 91.1719 124.639 91.2273 125.809L91.2349 126.239C91.2349 127.043 91.0787 127.762 90.7662 128.395C90.4588 129.028 90.0153 129.518 89.4358 129.865C88.8613 130.211 88.1961 130.385 87.4401 130.385C86.2861 130.385 85.3614 130.003 84.6659 129.239C83.9755 128.47 83.6303 127.448 83.6303 126.171V126.081ZM85.4672 126.239C85.4672 127.078 85.641 127.736 85.9888 128.214C86.3365 128.686 86.8203 128.922 87.4401 128.922C88.06 128.922 88.5413 128.681 88.884 128.199C89.2317 127.716 89.4055 127.01 89.4055 126.081C89.4055 125.257 89.2266 124.603 88.8688 124.121C88.5161 123.639 88.0348 123.397 87.425 123.397C86.8253 123.397 86.3491 123.636 85.9963 124.114C85.6436 124.586 85.4672 125.294 85.4672 126.239Z" fill="white"/>
<path d="M93.9925 126.096C93.9925 124.84 94.2848 123.832 94.8694 123.073C95.454 122.31 96.2376 121.928 97.2203 121.928C98.0871 121.928 98.7876 122.229 99.3218 122.832V118.656H101.159V130.234H99.4956L99.4049 129.39C98.8556 130.053 98.1224 130.385 97.2052 130.385C96.2477 130.385 95.4716 130 94.8769 129.231C94.2873 128.463 93.9925 127.417 93.9925 126.096ZM95.8294 126.254C95.8294 127.083 95.9881 127.731 96.3056 128.199C96.6282 128.661 97.0842 128.892 97.6739 128.892C98.4247 128.892 98.974 128.558 99.3218 127.89V124.407C98.9841 123.754 98.4398 123.428 97.689 123.428C97.0943 123.428 96.6357 123.664 96.3132 124.136C95.9907 124.603 95.8294 125.309 95.8294 126.254Z" fill="white"/>
<path d="M109.735 127.272C109.735 126.764 109.874 126.299 110.151 125.877C110.428 125.45 110.975 124.945 111.792 124.362C111.363 123.825 111.063 123.367 110.892 122.99C110.726 122.614 110.643 122.249 110.643 121.898C110.643 121.038 110.905 120.36 111.429 119.862C111.953 119.36 112.658 119.109 113.545 119.109C114.347 119.109 115.002 119.345 115.511 119.817C116.025 120.285 116.282 120.865 116.282 121.558C116.282 122.016 116.166 122.438 115.934 122.825C115.702 123.207 115.322 123.588 114.793 123.97L114.044 124.513L116.168 127.015C116.476 126.412 116.629 125.742 116.629 125.003H118.224C118.224 126.355 117.907 127.463 117.272 128.327L118.89 130.234H116.758L116.138 129.503C115.352 130.091 114.415 130.385 113.326 130.385C112.237 130.385 111.366 130.098 110.711 129.525C110.06 128.947 109.735 128.196 109.735 127.272ZM113.379 128.922C113.999 128.922 114.578 128.716 115.118 128.304L112.714 125.478L112.479 125.644C111.875 126.101 111.572 126.623 111.572 127.211C111.572 127.719 111.736 128.131 112.064 128.448C112.391 128.764 112.83 128.922 113.379 128.922ZM112.366 121.852C112.366 122.274 112.626 122.805 113.145 123.443L113.984 122.87L114.218 122.681C114.53 122.405 114.687 122.051 114.687 121.619C114.687 121.332 114.578 121.089 114.362 120.888C114.145 120.682 113.87 120.578 113.538 120.578C113.18 120.578 112.895 120.699 112.683 120.94C112.472 121.181 112.366 121.485 112.366 121.852Z" fill="white"/>
<path d="M127.058 130.234V119.259H130.309C131.281 119.259 132.143 119.476 132.894 119.908C133.65 120.34 134.234 120.953 134.648 121.747C135.061 122.541 135.268 123.45 135.268 124.475V125.026C135.268 126.066 135.058 126.98 134.64 127.769C134.227 128.558 133.635 129.166 132.864 129.593C132.098 130.02 131.218 130.234 130.225 130.234H127.058ZM128.971 120.797V128.711H130.218C131.221 128.711 131.989 128.4 132.523 127.777C133.063 127.149 133.337 126.249 133.347 125.078V124.468C133.347 123.277 133.088 122.367 132.569 121.739C132.05 121.111 131.296 120.797 130.309 120.797H128.971Z" fill="white"/>
<path d="M142.825 123.752C142.583 123.712 142.334 123.691 142.077 123.691C141.235 123.691 140.668 124.013 140.376 124.656V130.234H138.539V122.078H140.293L140.338 122.99C140.782 122.282 141.397 121.928 142.183 121.928C142.445 121.928 142.661 121.963 142.833 122.033L142.825 123.752Z" fill="white"/>
<path d="M147.488 130.234H145.651V122.078H147.488V130.234ZM145.538 119.96C145.538 119.679 145.626 119.445 145.802 119.259C145.984 119.074 146.241 118.981 146.573 118.981C146.906 118.981 147.163 119.074 147.344 119.259C147.526 119.445 147.616 119.679 147.616 119.96C147.616 120.237 147.526 120.468 147.344 120.654C147.163 120.835 146.906 120.925 146.573 120.925C146.241 120.925 145.984 120.835 145.802 120.654C145.626 120.468 145.538 120.237 145.538 119.96Z" fill="white"/>
<path d="M152.748 122.078L152.8 123.021C153.405 122.292 154.199 121.928 155.182 121.928C156.885 121.928 157.752 122.9 157.782 124.845V130.234H155.945V124.95C155.945 124.433 155.832 124.051 155.605 123.804C155.383 123.553 155.018 123.428 154.509 123.428C153.768 123.428 153.216 123.762 152.853 124.43V130.234H151.016V122.078H152.748Z" fill="white"/>
<path d="M163.866 126.737L163.049 127.573V130.234H161.212V118.656H163.049V125.335L163.624 124.619L165.884 122.078H168.091L165.052 125.478L168.416 130.234H166.292L163.866 126.737Z" fill="white"/>
<path d="M175.43 128.018C175.43 127.691 175.294 127.443 175.022 127.272C174.755 127.101 174.309 126.95 173.684 126.819C173.059 126.689 172.537 126.523 172.119 126.322C171.202 125.88 170.743 125.239 170.743 124.4C170.743 123.696 171.04 123.109 171.635 122.636C172.23 122.164 172.986 121.928 173.903 121.928C174.88 121.928 175.669 122.169 176.269 122.651C176.874 123.134 177.176 123.759 177.176 124.528H175.339C175.339 124.176 175.208 123.885 174.946 123.654C174.684 123.418 174.336 123.299 173.903 123.299C173.5 123.299 173.17 123.392 172.913 123.578C172.661 123.764 172.535 124.013 172.535 124.325C172.535 124.606 172.653 124.825 172.89 124.98C173.127 125.136 173.605 125.294 174.326 125.455C175.047 125.611 175.611 125.799 176.019 126.02C176.433 126.237 176.738 126.498 176.934 126.804C177.136 127.111 177.236 127.483 177.236 127.92C177.236 128.654 176.932 129.249 176.322 129.706C175.712 130.158 174.913 130.385 173.925 130.385C173.255 130.385 172.658 130.264 172.134 130.023C171.61 129.782 171.202 129.45 170.909 129.028C170.617 128.606 170.471 128.151 170.471 127.664H172.255C172.28 128.096 172.444 128.43 172.746 128.666C173.049 128.897 173.449 129.013 173.948 129.013C174.432 129.013 174.8 128.922 175.052 128.741C175.304 128.556 175.43 128.314 175.43 128.018Z" fill="white"/>
<path d="M119.95 31.914C108.474 31.9261 97.2734 35.4153 87.8319 41.9189C78.3905 48.4226 71.1541 57.6337 67.0821 68.3312H68.5618C72.593 58.0129 79.655 49.1487 88.8231 42.8991C97.9912 36.6495 108.838 33.3058 119.944 33.3058C131.05 33.3058 141.897 36.6495 151.065 42.8991C160.233 49.1487 167.295 58.0129 171.326 68.3312H172.817C168.744 57.6346 161.507 48.4244 152.066 41.9209C142.625 35.4174 131.425 31.9277 119.95 31.914Z" fill="white"/>
<path d="M54.5827 68.3312C58.879 54.388 67.5465 42.186 79.3119 33.5176C91.0774 24.8493 105.321 20.1716 119.95 20.1716C134.578 20.1716 148.822 24.8493 160.587 33.5176C172.353 42.186 181.02 54.388 185.316 68.3312H188.197C183.875 53.6218 174.888 40.705 162.584 31.5159C150.281 22.3268 135.322 17.3603 119.95 17.3603C104.577 17.3603 89.6185 22.3268 77.3147 31.5159C65.0109 40.705 56.0245 53.6218 51.7016 68.3312H54.5827Z" fill="white"/>
<path fill-rule="evenodd" clip-rule="evenodd" d="M110.365 43.6618C112.293 45.4167 117.775 49.9661 120.645 52.3805C123.514 54.7949 125.263 55.9574 133.559 65.7939L135.711 68.3536H150.744C149.287 67.0458 147.729 65.6486 146.013 64.1619C133.189 52.9841 130.846 51.218 128.649 48.9377C126.451 46.6575 122.023 40.4762 119.681 37.3576C113.579 30.1806 107.074 23.3549 100.197 16.9134C92.1257 9.30129 85.9377 4.88606 81.8347 3.28763C81.8347 3.28763 77.048 1.80099 75.3328 2.22574C73.6176 2.6505 71.4653 3.76828 74.1109 6.69686C76.7565 9.62544 108.425 41.9069 110.365 43.6618Z" fill="white"/>
<path d="M119.21 51.1845C123.548 46.9146 127.539 43.0918 129.142 41.6275C132.651 38.4194 132.673 39.1684 135.106 38.2741C137.538 37.3799 140.801 38.3859 144.825 35.4462C148.85 32.5064 155.934 23.62 163.098 15.2143C170.261 6.80864 168.703 8.20586 167.582 9.27893C166.461 10.352 147.19 29.399 145.98 30.2485C145.738 30.401 145.452 30.4688 145.167 30.4413C144.882 30.4138 144.614 30.2924 144.406 30.0964C144.198 29.9004 144.061 29.6408 144.017 29.3587C143.973 29.0766 144.025 28.7879 144.164 28.5383C144.87 27.6217 145.475 26.9287 149.41 22.5358C153.345 18.1429 164.981 5.59026 164.701 5.40024C164.421 5.21021 143.401 26.0568 142.28 27.0181C141.159 27.9794 140.857 27.1858 140.7 27.0181C140.532 26.8616 139.792 26.4033 140.7 25.4867C141.608 24.5702 163.019 3.92477 162.851 3.6565C162.683 3.38823 149.713 14.7337 145.206 18.59C140.7 22.4464 139.982 23.0612 139.052 23.7206C138.121 24.3801 136.361 23.1841 137.225 21.9993C138.088 20.8144 157.627 1.99101 158.726 0.917941C159.824 -0.155127 161.237 -1.65295 152.605 5.38906C143.973 12.4311 134.837 19.3501 131.832 23.2735C128.828 27.1969 129.904 30.2932 129.052 32.6517C128.2 35.0102 128.985 34.999 125.689 38.4306C124.165 40.0067 120.163 44.0195 115.712 48.3006L119.21 51.1845Z" fill="white"/>
<path d="M103.033 68.3312C103.93 67.2134 104.805 66.1963 105.623 65.235C108.067 62.3735 112.932 57.4105 117.663 52.7158L114.098 49.8208C109.356 54.359 104.39 58.9866 101.509 61.3339C98.8743 63.4689 95.6458 65.9727 92.5405 68.3312H103.033Z" fill="white"/>
</svg>
