<svg width="20" height="20" viewBox="0 0 20 20" fill="none" xmlns="http://www.w3.org/2000/svg">
<path d="M14.9074 4.22101C15.6738 4.22101 16.2947 3.60427 16.2947 2.83644V1.38731C16.2947 0.618797 15.6745 0 14.9074 0C14.1402 0 13.5208 0.618111 13.5208 1.38731V2.83713C13.5214 3.60427 14.1409 4.22101 14.9074 4.22101Z" fill="#909090"/>
<path d="M19.8358 2.39977H17.0433V3.10511C17.0433 4.26921 16.0976 5.21767 14.9315 5.21767C13.7639 5.21767 12.8203 4.26921 12.8203 3.10511V2.39977H7.18516V3.10511C7.18516 4.26921 6.23808 5.21767 5.0726 5.21767C3.90712 5.21767 2.96072 4.2699 2.96072 3.10511V2.39977L0.142822 2.36475V20.0001H1.55211H18.4499L19.8571 19.996L19.8358 2.39977ZM18.4485 18.5956H1.55211V7.32955H18.4499V18.5956H18.4485Z" fill="#909090"/>
<path d="M5.05074 4.22101C5.81719 4.22101 6.43874 3.60427 6.43874 2.83644V1.38731C6.43874 0.618111 5.81719 0 5.05074 0C4.28428 0 3.66479 0.618111 3.66479 1.38731V2.83713C3.66479 3.60427 4.28359 4.22101 5.05074 4.22101Z" fill="#909090"/>
<path d="M9.40823 8.84082H7.18921V10.7995H9.40823V8.84082Z" fill="#909090"/>
<path d="M12.9982 8.84082H10.7771V10.7995H12.9982V8.84082Z" fill="#909090"/>
<path d="M16.3235 8.84082H14.1045V10.7995H16.3235V8.84082Z" fill="#909090"/>
<path d="M9.40823 12.0938H7.18921V14.0511H9.40823V12.0938Z" fill="#909090"/>
<path d="M12.9982 12.0938H10.7771V14.0511H12.9982V12.0938Z" fill="#909090"/>
<path d="M16.3235 12.0938H14.1045V14.0511H16.3235V12.0938Z" fill="#909090"/>
<path d="M9.40823 15.4106H7.18921V17.368H9.40823V15.4106Z" fill="#909090"/>
<path d="M5.88244 12.0938H3.66479V14.0511H5.88244V12.0938Z" fill="#909090"/>
<path d="M5.88244 15.4106H3.66479V17.368H5.88244V15.4106Z" fill="#909090"/>
<path d="M12.9982 15.4106H10.7771V17.368H12.9982V15.4106Z" fill="#909090"/>
<path d="M16.3235 15.4106H14.1045V17.368H16.3235V15.4106Z" fill="#909090"/>
</svg>
