<svg width="38" height="52" viewBox="0 0 38 52" fill="none" xmlns="http://www.w3.org/2000/svg">
<path d="M18.9999 0C8.61565 0 0.16748 8.44817 0.16748 18.8323C0.16748 31.7194 17.0207 50.6384 17.7382 51.4374C18.4122 52.1881 19.5889 52.1868 20.2616 51.4374C20.9792 50.6384 37.8323 31.7194 37.8323 18.8323C37.8321 8.44817 29.3841 0 18.9999 0ZM18.9999 28.3074C13.7753 28.3074 9.52494 24.0569 9.52494 18.8323C9.52494 13.6077 13.7754 9.35736 18.9999 9.35736C24.2244 9.35736 28.4748 13.6079 28.4748 18.8324C28.4748 24.057 24.2244 28.3074 18.9999 28.3074Z" fill="#FF4800"/>
</svg>
